<svg width="1024" height="1024" viewBox="0 0 1024 1024" fill="none" xmlns="http://www.w3.org/2000/svg">
  <!-- Background with gradient -->
  <defs>
    <linearGradient id="bgGradient" x1="0%" y1="0%" x2="100%" y2="100%">
      <stop offset="0%" style="stop-color:#007AFF;stop-opacity:1" />
      <stop offset="100%" style="stop-color:#0051D5;stop-opacity:1" />
    </linearGradient>
  </defs>
  
  <!-- Background Circle -->
  <circle cx="512" cy="512" r="512" fill="url(#bgGradient)"/>
  
  <!-- Calendar Icon -->
  <g transform="translate(512, 512)">
    <!-- Calendar base -->
    <rect x="-120" y="-80" width="240" height="160" rx="16" fill="white"/>
    
    <!-- Calendar header -->
    <rect x="-120" y="-80" width="240" height="40" rx="16" fill="#F2F2F7"/>
    
    <!-- Calendar binding holes -->
    <circle cx="-80" cy="-60" r="4" fill="#8E8E93"/>
    <circle cx="-40" cy="-60" r="4" fill="#8E8E93"/>
    <circle cx="0" cy="-60" r="4" fill="#8E8E93"/>
    <circle cx="40" cy="-60" r="4" fill="#8E8E93"/>
    <circle cx="80" cy="-60" r="4" fill="#8E8E93"/>
    
    <!-- Calendar grid lines -->
    <g stroke="#E5E5EA" stroke-width="1.5">
      <!-- Vertical lines -->
      <line x1="-80" y1="-40" x2="-80" y2="80"/>
      <line x1="-40" y1="-40" x2="-40" y2="80"/>
      <line x1="0" y1="-40" x2="0" y2="80"/>
      <line x1="40" y1="-40" x2="40" y2="80"/>
      <line x1="80" y1="-40" x2="80" y2="80"/>
      
      <!-- Horizontal lines -->
      <line x1="-120" y1="0" x2="120" y2="0"/>
      <line x1="-120" y1="40" x2="120" y2="40"/>
    </g>
    
    <!-- Event indicators -->
    <circle cx="-60" cy="-20" r="5" fill="#FF3B30"/>
    <circle cx="-20" cy="-20" r="5" fill="#34C759"/>
    <circle cx="20" cy="-20" r="5" fill="#FF9500"/>
    <circle cx="60" cy="-20" r="5" fill="#AF52DE"/>
    <circle cx="-40" cy="20" r="5" fill="#007AFF"/>
    <circle cx="0" cy="20" r="5" fill="#FF3B30"/>
    <circle cx="40" cy="20" r="5" fill="#34C759"/>
    <circle cx="-20" cy="60" r="5" fill="#FF9500"/>
    <circle cx="20" cy="60" r="5" fill="#AF52DE"/>
  </g>
  
  <!-- People icons around the calendar -->
  <g transform="translate(512, 512)">
    <!-- Person 1 (top-left) -->
    <g transform="translate(-200, -200)">
      <circle cx="0" cy="0" r="16" fill="white" opacity="0.9"/>
      <circle cx="0" cy="-6" r="6" fill="#007AFF"/>
      <ellipse cx="0" cy="6" rx="9" ry="12" fill="#007AFF"/>
    </g>
    
    <!-- Person 2 (top-right) -->
    <g transform="translate(200, -200)">
      <circle cx="0" cy="0" r="16" fill="white" opacity="0.9"/>
      <circle cx="0" cy="-6" r="6" fill="#007AFF"/>
      <ellipse cx="0" cy="6" rx="9" ry="12" fill="#007AFF"/>
    </g>
    
    <!-- Person 3 (bottom-left) -->
    <g transform="translate(-200, 200)">
      <circle cx="0" cy="0" r="16" fill="white" opacity="0.9"/>
      <circle cx="0" cy="-6" r="6" fill="#007AFF"/>
      <ellipse cx="0" cy="6" rx="9" ry="12" fill="#007AFF"/>
    </g>
    
    <!-- Person 4 (bottom-right) -->
    <g transform="translate(200, 200)">
      <circle cx="0" cy="0" r="16" fill="white" opacity="0.9"/>
      <circle cx="0" cy="-6" r="6" fill="#007AFF"/>
      <ellipse cx="0" cy="6" rx="9" ry="12" fill="#007AFF"/>
    </g>
  </g>
  
  <!-- Connection lines -->
  <g stroke="white" stroke-width="3" opacity="0.7">
    <line x1="312" y1="312" x2="392" y2="432"/>
    <line x1="712" y1="312" x2="632" y2="432"/>
    <line x1="312" y1="712" x2="392" y2="592"/>
    <line x1="712" y1="712" x2="632" y2="592"/>
  </g>
</svg>
